<svg xmlns="http://www.w3.org/2000/svg" xmlns:xlink="http://www.w3.org/1999/xlink" width="250" height="226" viewBox="0 0 250 226">
  <defs>
    <clipPath id="clip-path">
      <rect id="Rectangle_16" data-name="Rectangle 16" width="250" height="226" transform="translate(738 1267)" fill="#fff" stroke="#707070" stroke-width="1"/>
    </clipPath>
  </defs>
  <g id="Mask_Group_6" data-name="Mask Group 6" transform="translate(-738 -1267)" clip-path="url(#clip-path)">
    <g id="noun_Hotel_2559684" transform="translate(748.092 1267)">
      <g id="Group_27" data-name="Group 27" transform="translate(0)">
        <path id="Path_15" data-name="Path 15" d="M251.415,373.133c0-.017,0-.033,0-.05a106.214,106.214,0,0,0-3.817-24.1H71.334a107.183,107.183,0,0,0-3.746,23.9c-.005.116-.012.232-.017.348q-.077,1.753-.1,3.524H251.523Q251.5,374.932,251.415,373.133Z" transform="translate(-44.587 -169.808)"/>
        <path id="Path_16" data-name="Path 16" d="M235.3,217.583a18.276,18.276,0,0,0-36.542-.1,106.755,106.755,0,0,1,36.542.1Z" transform="translate(-102.119 -104.439)"/>
        <path id="Path_17" data-name="Path 17" d="M183.061,237.161c-.03-.005-.062,0-.092-.01a102.2,102.2,0,0,0-39.314-.093c-.015,0-.03,0-.045,0-29.17,5.741-56.556,24.67-67.413,58.449H250.413C239.548,261.925,212.233,243.018,183.061,237.161ZM210.848,267.8a1.824,1.824,0,0,1-2.538-.469c-5.871-8.534-15.672-13.717-26.888-14.221a1.826,1.826,0,0,1,.163-3.649c12.369.555,23.2,6.314,29.731,15.8A1.828,1.828,0,0,1,210.848,267.8Z" transform="translate(-48.413 -119.993)"/>
        <path id="Path_18" data-name="Path 18" d="M235.526,404.877H26.741v15.4H256.558v-15.4Z" transform="translate(-26.741 -194.281)"/>
        <path id="Path_19" data-name="Path 19" d="M225.274,69.484c.929.453,2.536,1.234,3.624,1.873-.478.348-1.042.741-1.547,1.091-4.869,3.387-13.019,9.054-12.861,16.863.105,5.073,3.127,10.1,8.983,14.954a1.826,1.826,0,0,0,2.327-2.815c-5-4.142-7.579-8.252-7.66-12.214-.118-5.851,7.026-10.82,11.295-13.789,2.912-2.026,4.837-3.364,3.614-5.289-.833-1.294-2.89-2.359-6.2-3.968-3.286-1.62-6.39-3.151-7.934-5.564a5.461,5.461,0,0,1-.768-4.524c.977-3.757,5.374-7.264,8.843-9.126.035-.019.069-.039.1-.059,3.93-2.451,5.815-4.885,5.761-7.436-.048-2.585-2.015-5.457-6.016-8.781a1.826,1.826,0,0,0-2.332,2.81c4.2,3.493,4.686,5.386,4.7,6.043.011.516-.357,1.955-3.993,4.233-4.3,2.322-9.33,6.525-10.6,11.4a9.055,9.055,0,0,0,1.227,7.413C217.936,65.866,221.649,67.7,225.274,69.484Z" transform="translate(-108.931 -30.277)"/>
        <path id="Path_20" data-name="Path 20" d="M163.071,124.405c1.052.511,2.574,1.251,3.614,1.862-.47.341-1.022.725-1.516,1.068-4.879,3.388-13.044,9.058-12.887,16.893.105,5.072,3.128,10.1,8.983,14.954a1.826,1.826,0,0,0,2.328-2.815c-5-4.142-7.58-8.252-7.661-12.214-.118-5.876,7.041-10.847,11.318-13.817,2.9-2.017,4.822-3.349,3.6-5.245-.834-1.324-2.893-2.371-6.208-3.983-3.286-1.621-6.39-3.152-7.934-5.565a5.461,5.461,0,0,1-.768-4.524c.977-3.757,5.374-7.265,8.843-9.127.037-.02.073-.041.109-.063,3.925-2.469,5.808-4.9,5.755-7.432-.048-2.585-2.016-5.457-6.016-8.781a1.826,1.826,0,0,0-2.331,2.81c4.205,3.493,4.687,5.386,4.7,6.043.011.508-.358,1.936-4,4.235-4.3,2.323-9.327,6.525-10.593,11.4a9.054,9.054,0,0,0,1.227,7.413C155.727,120.784,159.439,122.615,163.071,124.405Z" transform="translate(-81.671 -54.32)"/>
        <path id="Path_21" data-name="Path 21" d="M287.482,124.4c1.054.512,2.578,1.254,3.619,1.865-.47.341-1.022.725-1.516,1.068-4.879,3.388-13.044,9.058-12.887,16.893.105,5.073,3.127,10.1,8.982,14.954a1.826,1.826,0,0,0,2.328-2.815c-5-4.142-7.579-8.252-7.661-12.214-.118-5.876,7.041-10.847,11.318-13.818,2.9-2.016,4.822-3.348,3.6-5.245-.835-1.324-2.9-2.373-6.183-3.97-3.3-1.621-6.409-3.153-7.968-5.577a5.464,5.464,0,0,1-.764-4.521c.978-3.756,5.372-7.268,8.839-9.132.036-.019.071-.04.105-.061,3.934-2.467,5.821-4.9,5.766-7.434-.048-2.585-2.016-5.457-6.016-8.781a1.826,1.826,0,0,0-2.332,2.81c4.2,3.493,4.686,5.386,4.7,6.043.011.509-.359,1.937-4.006,4.235-4.3,2.325-9.322,6.53-10.588,11.4a9.06,9.06,0,0,0,1.223,7.413C280.155,120.8,283.875,122.63,287.482,124.4Z" transform="translate(-136.188 -54.321)"/>
      </g>
    </g>
  </g>
</svg>
