<svg xmlns="http://www.w3.org/2000/svg" xmlns:xlink="http://www.w3.org/1999/xlink" width="250" height="226" viewBox="0 0 250 226"><defs><clipPath id="clip-path"><rect id="Rectangle_15" width="250" height="226" fill="#fff" stroke="#707070" stroke-width="1" data-name="Rectangle 15" transform="translate(100.941 1267)"/></clipPath></defs><g id="Mask_Group_5" clip-path="url(#clip-path)" data-name="Mask Group 5" transform="translate(-100.941 -1267)"><g id="noun_Hotel_1135267" transform="translate(140.094 1267)"><path id="Path_12" d="M306.286,94.1l-1.045,11.555,10.666-4.567,10.666,4.567L325.525,94.1l7.574-8.748-11.252-2.561-5.945-9.96-5.943,9.96-11.315,2.579Z" data-name="Path 12" transform="translate(-161.416 -35.417)"/><path id="Path_13" d="M333.169,144.652l-11.322-2.572-5.945-9.967-5.943,9.967-11.315,2.572,7.642,8.736-1.045,11.56,10.666-4.569,10.666,4.569-1.047-11.56Z" data-name="Path 13" transform="translate(-161.416 -61.401)"/><path id="Path_14" d="M189.323,41.132h9.316V34.149H177.685V13.2h4.669V6.216H75.253V13.2h4.672v20.95H58.973v6.983h9.311V225.023H54.32v6.983H203.294v-6.983H189.323Zm-72.157,29.1a10.5,10.5,0,0,1,10.482-10.482h2.314a10.5,10.5,0,0,1,10.482,10.482V87.685H133.46V70.234a3.5,3.5,0,0,0-3.5-3.5h-2.314a3.5,3.5,0,0,0-3.5,3.5V87.685h-6.983Zm0,37.244A10.5,10.5,0,0,1,127.648,97h2.314a10.5,10.5,0,0,1,10.482,10.482v17.451H133.46V107.477a3.5,3.5,0,0,0-3.5-3.5h-2.314a3.5,3.5,0,0,0-3.5,3.5v17.451h-6.983Zm0,37.244a10.5,10.5,0,0,1,10.482-10.482h2.314a10.5,10.5,0,0,1,10.482,10.482v17.451H133.46V144.721a3.5,3.5,0,0,0-3.5-3.5h-2.314a3.5,3.5,0,0,0-3.5,3.5v17.451h-6.983Zm-11.639,57.022H98.544V184.292a3.5,3.5,0,0,0-3.5-3.5H92.732a3.5,3.5,0,0,0-3.5,3.5v17.451H82.25V184.292a10.5,10.5,0,0,1,10.482-10.482h2.314a10.5,10.5,0,0,1,10.482,10.482Zm0-39.571H98.544V144.721a3.5,3.5,0,0,0-3.5-3.5H92.732a3.5,3.5,0,0,0-3.5,3.5v17.451H82.25V144.721a10.5,10.5,0,0,1,10.482-10.482h2.314a10.5,10.5,0,0,1,10.482,10.482Zm0-37.244H98.544V107.477a3.5,3.5,0,0,0-3.5-3.5H92.732a3.5,3.5,0,0,0-3.5,3.5v17.451H82.25V107.477A10.5,10.5,0,0,1,92.732,97h2.314a10.5,10.5,0,0,1,10.482,10.482Zm0-37.244H98.544V70.234a3.5,3.5,0,0,0-3.5-3.5H92.732a3.5,3.5,0,0,0-3.5,3.5V87.685H82.25V70.234A10.5,10.5,0,0,1,92.732,59.752h2.314a10.5,10.5,0,0,1,10.482,10.482ZM145.1,232h-30.26V173.811H145.1Zm30.26-30.26h-6.983V184.292a3.5,3.5,0,0,0-3.5-3.5h-2.314a3.5,3.5,0,0,0-3.5,3.5v17.451H152.08V184.292a10.5,10.5,0,0,1,10.484-10.482h2.314a10.5,10.5,0,0,1,10.479,10.482Zm0-39.571h-6.983V144.721a3.5,3.5,0,0,0-3.5-3.5h-2.314a3.5,3.5,0,0,0-3.5,3.5v17.451H152.08V144.721a10.5,10.5,0,0,1,10.484-10.482h2.314a10.5,10.5,0,0,1,10.479,10.482Zm0-37.244h-6.983V107.477a3.5,3.5,0,0,0-3.5-3.5h-2.314a3.5,3.5,0,0,0-3.5,3.5v17.451H152.08V107.477A10.5,10.5,0,0,1,162.564,97h2.314a10.5,10.5,0,0,1,10.479,10.482Zm0-37.244h-6.983V70.234a3.5,3.5,0,0,0-3.5-3.5h-2.314a3.5,3.5,0,0,0-3.5,3.5V87.685H152.08V70.234a10.5,10.5,0,0,1,10.484-10.482h2.314a10.5,10.5,0,0,1,10.479,10.482Z" data-name="Path 14" transform="translate(-54.32 -6.216)"/></g></g></svg>