<svg xmlns="http://www.w3.org/2000/svg" id="Page-1" width="40.5" height="40.5" viewBox="0 0 40.5 40.5"><g id="Icons-Communication"><g id="phone"><path id="Shape" fill="#fff" fill-rule="evenodd" d="M8.1,17.55A35.028,35.028,0,0,0,22.95,32.4l4.95-4.95A1.791,1.791,0,0,1,30.15,27a23.535,23.535,0,0,0,8.1,1.35A2.126,2.126,0,0,1,40.5,30.6v7.65a2.126,2.126,0,0,1-2.25,2.25A38.218,38.218,0,0,1,0,2.25,2.126,2.126,0,0,1,2.25,0h7.875a2.126,2.126,0,0,1,2.25,2.25,25.481,25.481,0,0,0,1.35,8.1,2.771,2.771,0,0,1-.45,2.25L8.1,17.55Z"/></g></g></svg>