<svg xmlns="http://www.w3.org/2000/svg" xmlns:xlink="http://www.w3.org/1999/xlink" width="177.997" height="257.795" viewBox="0 0 177.997 257.795">
  <defs>
    <clipPath id="clip-path">
      <rect width="177.997" height="257.795" fill="none"/>
    </clipPath>
  </defs>
  <g id="noun_synagogue_302654" clip-path="url(#clip-path)">
    <g id="noun_synagogue_302654-2" data-name="noun_synagogue_302654" transform="translate(-19 -5.205)">
      <path id="Path_24" data-name="Path 24" d="M74.5,17.281c-20.119,0-36.556,13.548-37.253,33.644h74.391C110.009,30.829,93.36,17.281,74.5,17.281Z" transform="translate(34.141 22.593)"/>
      <path id="Path_25" data-name="Path 25" d="M74.638,51.4A49.894,49.894,0,0,1,111.946,68.56l.215-38.723c0-.052.08.474.08.474H37V67.857C45.613,57.786,59.749,51.4,74.638,51.4Z" transform="translate(33.677 46.079)"/>
      <path id="Path_26" data-name="Path 26" d="M19,173.579H59.193V55.483A18.343,18.343,0,0,1,59.408,53H19Z" transform="translate(0 89.421)"/>
      <path id="Path_27" data-name="Path 27" d="M67.48,53c.1,2.871.172,2.314.172,3.6L67.27,173.579h39.418V53Z" transform="translate(90.31 89.421)"/>
      <path id="Path_28" data-name="Path 28" d="M126.869,79.73c-.066-.62-.152-1.235-.247-1.849a45.338,45.338,0,0,0-6.147-16.8c-.442-.726-.9-1.441-1.378-2.142q-.663-.973-1.378-1.912a46.912,46.912,0,0,0-74.426-.732c-.649.833-1.257,1.7-1.849,2.572-.316.471-.626.947-.924,1.43a43.146,43.146,0,0,0-6.155,17.584q-.108.917-.175,1.849c-.023.307-.083.614-.1.922-.04.772-.089,1.547-.089,2.323v118.1H59.838V157.632c0-10.266,9.31-18.621,20.134-18.621,10.64,0,19.881,8.547,19.881,19.026l.112,43.029h26.78l.382-116.907c0-1.283-.069-2.4-.178-3.658C126.918,80.192,126.9,80.037,126.869,79.73ZM80.644,71.261a18.586,18.586,0,0,1,14.22,6.623,18.042,18.042,0,0,1,1.375,1.849c.2.3.385.612.563.922a18.7,18.7,0,0,1-16.158,27.874,18.047,18.047,0,0,1-2.277-.155A18.587,18.587,0,0,1,64.489,80.654c.178-.31.365-.623.563-.922a18.365,18.365,0,0,1,1.375-1.849A18.58,18.58,0,0,1,80.644,71.261Z" transform="translate(28.064 61.933)"/>
      <path id="Path_29" data-name="Path 29" d="M61.312,74.35C52.016,74.35,44,81.464,44,90.2v43.434H78.483L78.4,90.6C78.394,81.783,70.292,74.35,61.312,74.35Z" transform="translate(46.773 129.365)"/>
      <path id="Path_30" data-name="Path 30" d="M60.582,82.47a15.829,15.829,0,0,0,12.865-25.1c-.227-.313-.456-.626-.7-.922A15.939,15.939,0,0,0,70.909,54.6a15.879,15.879,0,0,0-22.485,1.849c-.247.3-.479.609-.706.922a15.832,15.832,0,0,0,12.865,25.1Z" transform="translate(48.126 85.215)"/>
      <path id="Path_31" data-name="Path 31" d="M53.121,24.713l4.634,8.021,4.631-8.021h6.887l-3.442-5.742,3.442-5.742H62.386L57.755,5.2l-4.634,8.024H46.234l3.445,5.742-3.445,5.742Z" transform="translate(50.953 0)"/>
    </g>
  </g>
</svg>
