<svg xmlns="http://www.w3.org/2000/svg" width="249.997" height="188.202" viewBox="0 0 249.997 188.202"><g id="noun_Transportation_2011534" transform="translate(-0.369 -5.469)"><path id="Path_22" d="M100.674,118.371l1.266-4.974H30.288V40.9H159.04V65.973a119.154,119.154,0,0,1,13.572-.915,122.883,122.883,0,0,1,17.1,1.394v-11a6.053,6.053,0,0,0-6.059-6.059h-9.088V37.278c0-6.689-24.993-31.809-79.523-31.809S15.516,30.583,15.516,37.278V49.4H6.428A6.061,6.061,0,0,0,.369,55.455V82.72a6.065,6.065,0,0,0,6.059,6.059h9.088v75.736a12.122,12.122,0,0,0,12.118,12.118h8.331v10.6a6.065,6.065,0,0,0,6.059,6.059H62.473a6.057,6.057,0,0,0,6.059-6.059v-10.6H86.4a17.829,17.829,0,0,1-.636-4.532V136.251A18.2,18.2,0,0,1,100.674,118.371ZM77.62,20.235H111.7a5.683,5.683,0,0,1,0,11.367H77.62a5.683,5.683,0,1,1,0-11.367Zm-29.155,138.6A12.875,12.875,0,1,1,61.34,145.957,12.88,12.88,0,0,1,48.465,158.832Z" data-name="Path 22" transform="translate(0 0)"/><path id="Path_23" d="M162.395,69.825h-3.872l-8.295-32.639-.909-1.072C133.13,17.033,95.335,16.8,93.723,16.8s-39.407.224-55.6,19.31l-.909,1.072L28.923,69.825H25.051a9.092,9.092,0,0,0-9.088,9.088v35.851a9.092,9.092,0,0,0,9.088,9.088H29.6v6.974a5.513,5.513,0,0,0,5.514,5.508H53.7a5.5,5.5,0,0,0,5.5-5.508v-6.974h69.041v6.974a5.513,5.513,0,0,0,5.514,5.508h18.589a5.5,5.5,0,0,0,5.5-5.508v-6.974h4.544a9.092,9.092,0,0,0,9.088-9.088V78.913A9.083,9.083,0,0,0,162.395,69.825ZM40.459,107.7A10.858,10.858,0,1,1,51.311,96.841,10.864,10.864,0,0,1,40.459,107.7Zm78.009-3.036a3.034,3.034,0,0,1-3.029,3.029H72.008a3.034,3.034,0,0,1-3.029-3.029V89.007a3.034,3.034,0,0,1,3.029-3.029h43.43a3.034,3.034,0,0,1,3.029,3.029ZM41.429,69.825l6.816-26.847C59.218,31.526,84.623,28.945,93.723,28.927c9.1.018,34.506,2.6,45.478,14.051l6.816,26.847ZM147,107.7a10.858,10.858,0,1,1,10.852-10.858A10.864,10.864,0,0,1,147,107.7Z" data-name="Path 23" transform="translate(78.889 57.338)"/></g></svg>